<svg width="50" height="50" viewBox="0 0 50 50" xmlns="http://www.w3.org/2000/svg">
    <g fill-rule="nonzero" fill="none">
        <circle fill="#EAF3FC" cx="25" cy="25" r="25"/>
        <g transform="translate(16.5 11.5)">
            <rect fill="#FFF" x=".625" y=".625" width="22.5" height="14.25" rx="1.5"/>
            <path d="M21.625 15.5h-19.5A2.127 2.127 0 0 1 0 13.375V2.125A2.127 2.127 0 0 1 2.125 0h19.5a2.127 2.127 0 0 1 2.125 2.125v11.25a2.127 2.127 0 0 1-2.125 2.125zM2.125 1.25a.875.875 0 0 0-.875.875v11.25c0 .483.392.875.875.875h19.5a.875.875 0 0 0 .875-.875V2.125a.875.875 0 0 0-.875-.875h-19.5z" fill="#4D649B"/>
            <path fill="#A9CEFF" d="M1.278 4.5h21.223v2.25H1.278z"/>
        </g>
        <g transform="translate(9 22.75)">
            <rect fill="#FFF" x=".625" y=".625" width="22.5" height="14.25" rx="1.5"/>
            <path d="M21.625 15.5h-19.5A2.127 2.127 0 0 1 0 13.375V2.125A2.127 2.127 0 0 1 2.125 0h19.5a2.127 2.127 0 0 1 2.125 2.125v11.25a2.127 2.127 0 0 1-2.125 2.125zM2.125 1.25a.875.875 0 0 0-.875.875v11.25c0 .483.392.875.875.875h19.5a.875.875 0 0 0 .875-.875V2.125a.875.875 0 0 0-.875-.875h-19.5z" fill="#4D649B"/>
            <path d="M19.625 12.25h-2.25a.375.375 0 1 1 0-.75h2.25a.375.375 0 1 1 0 .75zm-4.25 0h-2.5a.375.375 0 1 1 0-.75h2.5a.375.375 0 1 1 0 .75zm-4.5 0h-2.5a.375.375 0 1 1 0-.75h2.5a.375.375 0 1 1 0 .75zm-4.5 0h-2.5a.375.375 0 1 1 0-.75h2.5a.375.375 0 1 1 0 .75z" fill="#4D649B"/>
            <rect fill="#4D649B" x="15" y="5.5" width="5.25" height="3.75" rx=".75"/>
        </g>
    </g>
</svg>
