<svg width="50" height="50" viewBox="0 0 50 50" xmlns="http://www.w3.org/2000/svg">
    <g fill-rule="nonzero" fill="none">
        <circle fill="#EAF3FC" cx="25" cy="25" r="25"/>
        <g transform="translate(11.75 11.5)">
            <rect fill="#FFF" x=".865" y=".525" width="25" height="25" rx="1.25"/>
            <path d="M25.875 5.308a.625.625 0 0 1-.625-.625v-2.78a.64.64 0 0 0-.625-.653h-2.852a.625.625 0 0 1 0-1.25h2.852A1.89 1.89 0 0 1 26.5 1.903v2.78c0 .345-.28.625-.625.625zM.625 5.308A.625.625 0 0 1 0 4.683v-2.78A1.89 1.89 0 0 1 1.875 0h2.663a.625.625 0 1 1 0 1.25H1.875a.64.64 0 0 0-.625.653v2.78c0 .345-.28.625-.625.625zM4.728 26.25H1.875A1.89 1.89 0 0 1 0 24.35v-2.78a.625.625 0 0 1 1.25 0v2.78a.64.64 0 0 0 .625.65h2.853a.625.625 0 1 1 0 1.25zM24.625 26.25h-2.662a.625.625 0 0 1 0-1.25h2.662a.64.64 0 0 0 .625-.65v-2.78a.625.625 0 0 1 1.25 0v2.78a1.89 1.89 0 0 1-1.875 1.9z" fill="#4D649B"/>
            <rect fill="#FFF" x="4.533" y="4.447" width="7.23" height="7.38" rx="1"/>
            <path d="M9.763 6.447v3.38h-3.23v-3.38h3.23m1-2h-5.23a1 1 0 0 0-1 1v5.38a1 1 0 0 0 1 1h5.23a1 1 0 0 0 1-1v-5.38a1 1 0 0 0-1-1z" fill="#4D649B"/>
            <rect fill="#FFF" x="4.533" y="14.47" width="7.23" height="7.38" rx="1"/>
            <path d="M9.763 16.47v3.38h-3.23v-3.38h3.23m1-2h-5.23a1 1 0 0 0-1 1v5.38a1 1 0 0 0 1 1h5.23a1 1 0 0 0 1-1v-5.38a1 1 0 0 0-1-1z" fill="#4D649B"/>
            <rect fill="#FFF" x="14.263" y="4.447" width="7.23" height="7.38" rx="1"/>
            <path d="M19.493 6.447v3.38h-3.23v-3.38h3.23m1-2h-5.23a1 1 0 0 0-1 1v5.38a1 1 0 0 0 1 1h5.23a1 1 0 0 0 1-1v-5.38a1 1 0 0 0-1-1z" fill="#4D649B"/>
            <rect fill="#4D649B" x="14.263" y="14.47" width="2.697" height="2.752" rx=".5"/>
            <rect fill="#4D649B" x="14.263" y="19.098" width="2.697" height="2.752" rx=".5"/>
            <path d="M16.96 17.61v1.082a.5.5 0 0 0 .5.5h1.5a.5.5 0 0 1 .5.5v1.625a.5.5 0 0 0 .5.5h1.06a.5.5 0 0 0 .5-.5V17.61a.5.5 0 0 0-.5-.5h-3.56a.5.5 0 0 0-.5.5z" fill="#4D649B"/>
        </g>
    </g>
</svg>
